<mxfile host="app.diagrams.net" modified="2023-06-08T02:18:46.928Z" agent="Mozilla/5.0 (Macintosh; Intel Mac OS X 10_15_7) AppleWebKit/537.36 (KHTML, like Gecko) Chrome/113.0.0.0 Safari/537.36" etag="taU34l_dZZ4NchIYEbzL" version="21.3.5" type="github">
  <diagram name="第 1 页" id="ln_IlPdDiORjP3YLv3bt">
    <mxGraphModel dx="954" dy="590" grid="1" gridSize="10" guides="1" tooltips="1" connect="1" arrows="1" fold="1" page="1" pageScale="1" pageWidth="827" pageHeight="1169" math="0" shadow="0">
      <root>
        <mxCell id="0" />
        <mxCell id="1" parent="0" />
        <mxCell id="__9nwrpT_g-zmR8Oy9NC-9" style="edgeStyle=orthogonalEdgeStyle;rounded=0;orthogonalLoop=1;jettySize=auto;html=1;entryX=0.5;entryY=0;entryDx=0;entryDy=0;fontSize=15;" edge="1" parent="1" source="__9nwrpT_g-zmR8Oy9NC-1" target="__9nwrpT_g-zmR8Oy9NC-2">
          <mxGeometry relative="1" as="geometry" />
        </mxCell>
        <mxCell id="__9nwrpT_g-zmR8Oy9NC-10" style="edgeStyle=orthogonalEdgeStyle;rounded=0;orthogonalLoop=1;jettySize=auto;html=1;entryX=0.5;entryY=0;entryDx=0;entryDy=0;fontSize=15;" edge="1" parent="1" source="__9nwrpT_g-zmR8Oy9NC-1" target="__9nwrpT_g-zmR8Oy9NC-3">
          <mxGeometry relative="1" as="geometry" />
        </mxCell>
        <mxCell id="__9nwrpT_g-zmR8Oy9NC-1" value="&lt;font style=&quot;font-size: 15px;&quot;&gt;监管下发儿童色情用户&lt;/font&gt;" style="rounded=1;whiteSpace=wrap;html=1;fontSize=15;" vertex="1" parent="1">
          <mxGeometry x="370" y="80" width="120" height="60" as="geometry" />
        </mxCell>
        <mxCell id="__9nwrpT_g-zmR8Oy9NC-11" style="edgeStyle=orthogonalEdgeStyle;rounded=0;orthogonalLoop=1;jettySize=auto;html=1;entryX=0.5;entryY=0;entryDx=0;entryDy=0;fontSize=15;" edge="1" parent="1" source="__9nwrpT_g-zmR8Oy9NC-2" target="__9nwrpT_g-zmR8Oy9NC-4">
          <mxGeometry relative="1" as="geometry" />
        </mxCell>
        <mxCell id="__9nwrpT_g-zmR8Oy9NC-2" value="用户分享外链" style="rounded=1;whiteSpace=wrap;html=1;fontSize=15;" vertex="1" parent="1">
          <mxGeometry x="280" y="180" width="120" height="60" as="geometry" />
        </mxCell>
        <mxCell id="__9nwrpT_g-zmR8Oy9NC-12" style="edgeStyle=orthogonalEdgeStyle;rounded=0;orthogonalLoop=1;jettySize=auto;html=1;entryX=0.5;entryY=0;entryDx=0;entryDy=0;fontSize=15;" edge="1" parent="1" source="__9nwrpT_g-zmR8Oy9NC-3" target="__9nwrpT_g-zmR8Oy9NC-6">
          <mxGeometry relative="1" as="geometry" />
        </mxCell>
        <mxCell id="__9nwrpT_g-zmR8Oy9NC-3" value="用户分享文件" style="rounded=1;whiteSpace=wrap;html=1;fontSize=15;" vertex="1" parent="1">
          <mxGeometry x="460" y="180" width="120" height="60" as="geometry" />
        </mxCell>
        <mxCell id="__9nwrpT_g-zmR8Oy9NC-13" style="edgeStyle=orthogonalEdgeStyle;rounded=0;orthogonalLoop=1;jettySize=auto;html=1;entryX=0.5;entryY=0;entryDx=0;entryDy=0;fontSize=15;" edge="1" parent="1" source="__9nwrpT_g-zmR8Oy9NC-4" target="__9nwrpT_g-zmR8Oy9NC-5">
          <mxGeometry relative="1" as="geometry" />
        </mxCell>
        <mxCell id="__9nwrpT_g-zmR8Oy9NC-4" value="外链下文件" style="rounded=1;whiteSpace=wrap;html=1;fontSize=15;" vertex="1" parent="1">
          <mxGeometry x="280" y="290" width="120" height="60" as="geometry" />
        </mxCell>
        <mxCell id="__9nwrpT_g-zmR8Oy9NC-19" style="rounded=0;orthogonalLoop=1;jettySize=auto;html=1;entryX=0.5;entryY=0;entryDx=0;entryDy=0;fontSize=15;" edge="1" parent="1" source="__9nwrpT_g-zmR8Oy9NC-5" target="__9nwrpT_g-zmR8Oy9NC-17">
          <mxGeometry relative="1" as="geometry" />
        </mxCell>
        <mxCell id="__9nwrpT_g-zmR8Oy9NC-5" value="溯源用户" style="rounded=1;whiteSpace=wrap;html=1;fontSize=15;" vertex="1" parent="1">
          <mxGeometry x="280" y="420" width="120" height="60" as="geometry" />
        </mxCell>
        <mxCell id="__9nwrpT_g-zmR8Oy9NC-16" style="edgeStyle=orthogonalEdgeStyle;rounded=0;orthogonalLoop=1;jettySize=auto;html=1;entryX=0.5;entryY=0;entryDx=0;entryDy=0;fontSize=15;" edge="1" parent="1" source="__9nwrpT_g-zmR8Oy9NC-6" target="__9nwrpT_g-zmR8Oy9NC-15">
          <mxGeometry relative="1" as="geometry" />
        </mxCell>
        <mxCell id="__9nwrpT_g-zmR8Oy9NC-6" value="文件夹下文件" style="rounded=1;whiteSpace=wrap;html=1;fontSize=15;" vertex="1" parent="1">
          <mxGeometry x="460" y="290" width="120" height="60" as="geometry" />
        </mxCell>
        <mxCell id="__9nwrpT_g-zmR8Oy9NC-20" style="rounded=0;orthogonalLoop=1;jettySize=auto;html=1;entryX=0.5;entryY=0;entryDx=0;entryDy=0;fontSize=15;" edge="1" parent="1" source="__9nwrpT_g-zmR8Oy9NC-15" target="__9nwrpT_g-zmR8Oy9NC-17">
          <mxGeometry relative="1" as="geometry" />
        </mxCell>
        <mxCell id="__9nwrpT_g-zmR8Oy9NC-21" style="edgeStyle=orthogonalEdgeStyle;rounded=0;orthogonalLoop=1;jettySize=auto;html=1;entryX=1;entryY=0.5;entryDx=0;entryDy=0;fontSize=15;" edge="1" parent="1" source="__9nwrpT_g-zmR8Oy9NC-15" target="__9nwrpT_g-zmR8Oy9NC-5">
          <mxGeometry relative="1" as="geometry" />
        </mxCell>
        <mxCell id="__9nwrpT_g-zmR8Oy9NC-15" value="溯源用户" style="rounded=1;whiteSpace=wrap;html=1;fontSize=15;" vertex="1" parent="1">
          <mxGeometry x="460" y="420" width="120" height="60" as="geometry" />
        </mxCell>
        <mxCell id="__9nwrpT_g-zmR8Oy9NC-24" value="" style="edgeStyle=orthogonalEdgeStyle;rounded=0;orthogonalLoop=1;jettySize=auto;html=1;" edge="1" parent="1" source="__9nwrpT_g-zmR8Oy9NC-18" target="__9nwrpT_g-zmR8Oy9NC-23">
          <mxGeometry relative="1" as="geometry" />
        </mxCell>
        <mxCell id="__9nwrpT_g-zmR8Oy9NC-18" value="" style="swimlane;startSize=0;fillColor=#E6D0DE;strokeColor=#666666;fontColor=#333333;strokeWidth=2;fontSize=15;" vertex="1" parent="1">
          <mxGeometry x="235" y="390" width="390" height="210" as="geometry" />
        </mxCell>
        <mxCell id="__9nwrpT_g-zmR8Oy9NC-17" value="下发用户" style="rounded=1;whiteSpace=wrap;html=1;fontSize=15;" vertex="1" parent="__9nwrpT_g-zmR8Oy9NC-18">
          <mxGeometry x="135" y="130" width="120" height="60" as="geometry" />
        </mxCell>
        <mxCell id="__9nwrpT_g-zmR8Oy9NC-22" value="关联关系图" style="text;html=1;strokeColor=none;fillColor=none;align=center;verticalAlign=middle;whiteSpace=wrap;rounded=0;fontSize=15;" vertex="1" parent="__9nwrpT_g-zmR8Oy9NC-18">
          <mxGeometry x="25" y="140" width="60" height="30" as="geometry" />
        </mxCell>
        <mxCell id="__9nwrpT_g-zmR8Oy9NC-23" value="强关联用户" style="rounded=0;whiteSpace=wrap;html=1;fontSize=15;" vertex="1" parent="1">
          <mxGeometry x="370" y="630" width="120" height="60" as="geometry" />
        </mxCell>
      </root>
    </mxGraphModel>
  </diagram>
</mxfile>
